<?xml version="1.0" encoding="utf-8"?>
<!-- Svg Vector Icons : http://www.onlinewebfonts.com/icon -->
<!DOCTYPE svg PUBLIC "-//W3C//DTD SVG 1.1//EN" "http://www.w3.org/Graphics/SVG/1.1/DTD/svg11.dtd">
<svg version="1.1" xmlns="http://www.w3.org/2000/svg" xmlns:xlink="http://www.w3.org/1999/xlink" x="0px" y="0px" viewBox="0 0 256 256" enable-background="new 0 0 256 256" xml:space="preserve">
<metadata> Svg Vector Icons : http://www.onlinewebfonts.com/icon </metadata>
<g><g><path fill="#000000" d="M236.7,82.1c-5.9-14-14.4-26.7-25.3-37.5c-10.8-10.8-23.5-19.3-37.5-25.3c-14.5-6.2-30-9.3-45.9-9.3c-15.9,0-31.4,3.1-45.9,9.3C68,25.2,55.4,33.7,44.6,44.6C33.7,55.4,25.2,68,19.3,82.1c-6.1,14.6-9.3,30-9.3,45.9s3.1,31.4,9.3,45.9c5.9,14,14.4,26.7,25.3,37.5c10.8,10.8,23.5,19.3,37.5,25.3c14.5,6.2,30,9.3,45.9,9.3s31.4-3.1,45.9-9.3c14.1-5.9,26.7-14.4,37.5-25.3c10.8-10.8,19.3-23.5,25.3-37.5c6.1-14.6,9.3-30,9.3-45.9S242.9,96.6,236.7,82.1z M128,242.2c-35.8,0-67.8-16.5-88.7-42.4c11.5-22.6,31.3-40.2,55.5-48.7c-13.4-10.1-22.1-26.1-22.1-44.2c0-30.5,24.7-55.2,55.2-55.2c30.5,0,55.2,24.7,55.2,55.2c0,18.1-8.7,34.2-22.3,44.3c24.2,8.6,44.1,26.4,55.5,49.1C195.4,225.8,163.6,242.2,128,242.2z"/></g></g>
</svg>